<svg width="312" height="266" viewBox="0 0 312 266" fill="none" xmlns="http://www.w3.org/2000/svg">
<path d="M311.138 150.532C304.781 220.989 214.975 270.467 134.308 263.189C20.4069 288.143 -4.86763 119.918 1.4894 49.4618C7.84643 -20.9947 95.9233 2.50287 176.59 9.7811C257.256 17.0593 317.495 80.0757 311.138 150.532Z" fill="#D8FFEB" fill-opacity="0.99"/>
<path d="M311.138 150.532C304.781 220.989 214.975 270.467 134.308 263.189C20.4069 288.143 -4.86763 119.918 1.4894 49.4618C7.84643 -20.9947 95.9233 2.50287 176.59 9.7811C257.256 17.0593 317.495 80.0757 311.138 150.532Z" fill="#D8FFEB" fill-opacity="0.99"/>
<path d="M311.138 150.532C304.781 220.989 214.975 270.467 134.308 263.189C20.4069 288.143 -4.86763 119.918 1.4894 49.4618C7.84643 -20.9947 95.9233 2.50287 176.59 9.7811C257.256 17.0593 317.495 80.0757 311.138 150.532Z" fill="#D8FFEB" fill-opacity="0.99"/>
<path d="M311.138 150.532C304.781 220.989 214.975 270.467 134.308 263.189C20.4069 288.143 -4.86763 119.918 1.4894 49.4618C7.84643 -20.9947 95.9233 2.50287 176.59 9.7811C257.256 17.0593 317.495 80.0757 311.138 150.532Z" fill="#9EFFCD"/>
</svg>
