<svg width="272" height="262" viewBox="0 0 272 262" fill="none" xmlns="http://www.w3.org/2000/svg">
<path d="M272 129.307C272 199.929 199.178 257.179 129.787 257.179C34.5178 292.208 0 127.217 0 56.5946C0 -14.0276 76.9637 1.43381 146.355 1.43381C215.747 1.43381 272 58.6844 272 129.307Z" fill="#D8FFEB" fill-opacity="0.99"/>
<path d="M272 129.307C272 199.929 199.178 257.179 129.787 257.179C34.5178 292.208 0 127.217 0 56.5946C0 -14.0276 76.9637 1.43381 146.355 1.43381C215.747 1.43381 272 58.6844 272 129.307Z" fill="#D8FFEB" fill-opacity="0.99"/>
<path d="M272 129.307C272 199.929 199.178 257.179 129.787 257.179C34.5178 292.208 0 127.217 0 56.5946C0 -14.0276 76.9637 1.43381 146.355 1.43381C215.747 1.43381 272 58.6844 272 129.307Z" fill="#D8FFEB" fill-opacity="0.99"/>
<path d="M272 129.307C272 199.929 199.178 257.179 129.787 257.179C34.5178 292.208 0 127.217 0 56.5946C0 -14.0276 76.9637 1.43381 146.355 1.43381C215.747 1.43381 272 58.6844 272 129.307Z" fill="#EFFEF6" fill-opacity="0.99"/>
</svg>
