<svg width="20" height="23" viewBox="0 0 20 23" fill="none" xmlns="http://www.w3.org/2000/svg">
<path d="M18.8889 6.64715L12.2222 0.842966C11.6111 0.300115 10.82 0 10 0C9.18012 0 8.38896 0.300115 7.77783 0.842966L1.11121 6.64715C0.758287 6.96061 0.476658 7.34515 0.285072 7.77515C0.0934866 8.20515 -0.00365837 8.67075 0.000105326 9.14096V18.7852C0.000105326 19.6631 0.351292 20.5051 0.976409 21.1259C1.60153 21.7468 2.44937 22.0955 3.33342 22.0955H16.6667C17.5507 22.0955 18.3985 21.7468 19.0237 21.1259C19.6488 20.5051 20 19.6631 20 18.7852V9.12992C20.0022 8.66158 19.9042 8.1981 19.7127 7.77011C19.5212 7.34213 19.2404 6.95938 18.8889 6.64715ZM12.2222 19.8886H7.77783V14.3713C7.77783 14.0787 7.89489 13.798 8.10326 13.5911C8.31164 13.3841 8.59425 13.2679 8.88893 13.2679H11.1111C11.4058 13.2679 11.6884 13.3841 11.8968 13.5911C12.1052 13.798 12.2222 14.0787 12.2222 14.3713V19.8886ZM17.7778 18.7852C17.7778 19.0778 17.6607 19.3585 17.4523 19.5654C17.244 19.7724 16.9613 19.8886 16.6667 19.8886H14.4444V14.3713C14.4444 13.4934 14.0933 12.6514 13.4681 12.0306C12.843 11.4097 11.9952 11.061 11.1111 11.061H8.88893C8.00488 11.061 7.15704 11.4097 6.53193 12.0306C5.90681 12.6514 5.55562 13.4934 5.55562 14.3713V19.8886H3.33342C3.03873 19.8886 2.75612 19.7724 2.54775 19.5654C2.33937 19.3585 2.22231 19.0778 2.22231 18.7852V9.12992C2.22251 8.97325 2.2563 8.81841 2.32144 8.67572C2.38658 8.53302 2.48157 8.40574 2.60009 8.30233L9.26671 2.50918C9.46947 2.33228 9.73014 2.23472 10 2.23472C10.2699 2.23472 10.5306 2.33228 10.7334 2.50918L17.4 8.30233C17.5185 8.40574 17.6135 8.53302 17.6786 8.67572C17.7438 8.81841 17.7776 8.97325 17.7778 9.12992V18.7852Z" fill="#34A853"/>
</svg>
