<svg width="19" height="19" viewBox="0 0 19 19" fill="none" xmlns="http://www.w3.org/2000/svg">
<path d="M8.31546 0L7.13092 2.8192C6.89401 2.89027 6.6808 3.00873 6.46758 3.12718L3.64838 1.94264L1.94264 3.64838L3.12718 6.46758C3.00873 6.70449 2.91396 6.89401 2.8192 7.13092L0 8.31546V10.6845L2.8192 11.8691C2.91396 12.106 3.00873 12.2955 3.12718 12.5324L1.94264 15.3516L3.64838 17.0574L6.46758 15.8728C6.6808 15.9676 6.89401 16.086 7.13092 16.1808L8.31546 19H10.6845L11.8691 16.1808C12.0823 16.086 12.3192 15.9913 12.5324 15.8728L15.3516 17.0574L17.0574 15.3516L15.8728 12.5324C15.9676 12.3192 16.086 12.0823 16.1808 11.8691L19 10.6845V8.31546L16.1808 7.13092C16.1097 6.91771 15.9913 6.6808 15.8728 6.46758L17.0574 3.64838L15.3516 1.94264L12.5324 3.12718C12.3192 3.03242 12.0823 2.91396 11.8691 2.8192L10.6845 0L8.31546 0ZM9.5 5.92269C11.4663 5.92269 13.0536 7.50997 13.0536 9.47631C13.0536 11.4426 11.4663 13.0299 9.5 13.0299C7.53367 13.0299 5.94638 11.4426 5.94638 9.47631C5.94638 7.50997 7.53367 5.92269 9.5 5.92269Z" fill="#0DB75F"/>
</svg>
