<svg width="80" height="80" viewBox="0 0 80 80" fill="none" xmlns="http://www.w3.org/2000/svg">
<path d="M67.87 16.338L55.5101 10.3019C55.0522 10.1143 54.5643 10.0121 54.0701 10.0001H53.8301C53.0504 9.99562 52.2911 10.2502 51.6701 10.7244L51.2501 11.0866L27.6102 32.7866L17.3202 25.0905C16.8566 24.7338 16.2833 24.5522 15.7002 24.5774C15.129 24.5709 14.5711 24.7509 14.1102 25.0905L10.8102 28.1086C10.5515 28.3388 10.3452 28.6224 10.2054 28.9401C10.0656 29.2579 9.9956 29.6022 10.0002 29.9496C9.99897 30.301 10.0703 30.6487 10.2098 30.9709C10.3492 31.293 10.5537 31.5824 10.8102 31.8208L19.8102 39.9999L10.8102 48.2091C10.5567 48.4463 10.3545 48.7336 10.2163 49.0529C10.0781 49.3723 10.0067 49.7169 10.0067 50.0652C10.0067 50.4135 10.0781 50.7581 10.2163 51.0774C10.3545 51.3968 10.5567 51.6841 10.8102 51.9213L14.1102 54.9394C14.6078 55.3773 15.2492 55.6139 15.9102 55.6034C16.4179 55.565 16.9055 55.3876 17.3202 55.0903L27.6102 47.2131L51.2501 68.9132C51.8549 69.5401 52.6647 69.926 53.5301 69.9997H54.0401C54.5528 70.0073 55.0589 69.8826 55.5101 69.6375L67.87 63.6013C68.4954 63.3001 69.0256 62.8304 69.4016 62.2444C69.7776 61.6583 69.9848 60.9788 70 60.2814V19.7485C69.998 19.0364 69.7972 18.3392 69.4207 17.7363C69.0441 17.1333 68.5068 16.6489 67.87 16.338ZM55.0001 53.6718L37.0001 39.9999L55.0001 26.3279V53.6718Z" fill="#34A853"/>
</svg>
