<svg width="54" height="79" viewBox="0 0 54 79" fill="none" xmlns="http://www.w3.org/2000/svg">
<path d="M2 14.5C2 11.1848 3.31696 8.00538 5.66117 5.66117C8.00538 3.31696 11.1848 2 14.5 2H27V27H14.5C11.1848 27 8.00538 25.683 5.66117 23.3388C3.31696 20.9946 2 17.8152 2 14.5Z" stroke="#0DB75F" stroke-width="4" stroke-linecap="round" stroke-linejoin="round"/>
<path d="M27 2H39.5C41.1417 2 42.7671 2.32333 44.2837 2.9515C45.8 3.57971 47.1779 4.50042 48.3387 5.66117C49.4996 6.82192 50.4204 8.19988 51.0483 9.71646C51.6767 11.233 52 12.8585 52 14.5C52 16.1415 51.6767 17.767 51.0483 19.2835C50.4204 20.8001 49.4996 22.1781 48.3387 23.3388C47.1779 24.4996 45.8 25.4203 44.2837 26.0485C42.7671 26.6767 41.1417 27 39.5 27H27V2Z" stroke="#0DB75F" stroke-width="4" stroke-linecap="round" stroke-linejoin="round"/>
<path d="M2 39.5C2 36.185 3.31696 33.0054 5.66117 30.6612C8.00538 28.317 11.1848 27 14.5 27H27V52H14.5C11.1848 52 8.00538 50.6829 5.66117 48.3388C3.31696 45.9946 2 42.815 2 39.5Z" stroke="#0DB75F" stroke-width="4" stroke-linecap="round" stroke-linejoin="round"/>
<path d="M27 39.5C27 37.8583 27.3233 36.2329 27.9517 34.7163C28.5796 33.2 29.5004 31.8221 30.6613 30.6612C31.8221 29.5004 33.2 28.5797 34.7163 27.9515C36.2329 27.3233 37.8583 27 39.5 27C41.1417 27 42.7671 27.3233 44.2837 27.9515C45.8 28.5797 47.1779 29.5004 48.3387 30.6612C49.4996 31.8221 50.4204 33.2 51.0483 34.7163C51.6767 36.2329 52 37.8583 52 39.5C52 41.1417 51.6767 42.7671 51.0483 44.2838C50.4204 45.8 49.4996 47.1779 48.3387 48.3388C47.1779 49.4996 45.8 50.4204 44.2837 51.0483C42.7671 51.6767 41.1417 52 39.5 52C37.8583 52 36.2329 51.6767 34.7163 51.0483C33.2 50.4204 31.8221 49.4996 30.6613 48.3388C29.5004 47.1779 28.5796 45.8 27.9517 44.2838C27.3233 42.7671 27 41.1417 27 39.5Z" stroke="#0DB75F" stroke-width="4" stroke-linecap="round" stroke-linejoin="round"/>
<path d="M2 64.5C2 61.185 3.31696 58.0054 5.66117 55.6613C8.00538 53.3171 11.1848 52 14.5 52H27V64.5C27 67.815 25.6829 70.9946 23.3387 73.3388C20.9946 75.6829 17.8152 77 14.5 77C11.1848 77 8.00538 75.6829 5.66117 73.3388C3.31696 70.9946 2 67.815 2 64.5Z" stroke="#0DB75F" stroke-width="4" stroke-linecap="round" stroke-linejoin="round"/>
</svg>
