<svg width="16" height="16" viewBox="0 0 16 16" fill="none" xmlns="http://www.w3.org/2000/svg">
<rect width="16" height="16" rx="8" fill="white"/>
<path d="M0 1.14614C0 0.513313 0.526012 0 1.17491 0H14.8251C15.474 0 16 0.513315 16 1.14614V14.8539C16 15.4869 15.474 16 14.8251 16L1.17491 16C0.526012 16 0 15.4869 0 14.8539V1.14614ZM3.74267 13.3937C4.4058 13.3937 4.94338 12.8561 4.94338 12.1929V7.36947C4.94338 6.70634 4.4058 6.16876 3.74267 6.16876C3.07954 6.16876 2.54196 6.70634 2.54196 7.36947V12.1929C2.54196 12.8561 3.07954 13.3937 3.74267 13.3937ZM3.74266 5.18232C4.58008 5.18232 5.10131 4.62753 5.10131 3.9342C5.0857 3.22527 4.58008 2.68587 3.75854 2.68587C2.93709 2.68587 2.4 3.22527 2.4 3.9342C2.4 4.62753 2.92112 5.18232 3.72701 5.18232H3.74266ZM7.45362 13.3937C8.11514 13.3937 8.6514 12.8574 8.6514 12.1959V9.35897C8.6514 9.14304 8.667 8.92732 8.73042 8.77296C8.90401 8.34153 9.29915 7.89471 9.96255 7.89471C10.8315 7.89471 11.1791 8.55725 11.1791 9.52851V12.1931C11.1791 12.8561 11.7166 13.3937 12.3797 13.3937C13.0428 13.3937 13.5803 12.8561 13.5803 12.1931V9.251C13.5803 7.03184 12.3956 5.99922 10.8156 5.99922C9.54177 5.99922 8.9706 6.69937 8.65146 7.19167V7.21089C8.65146 7.21402 8.64892 7.21656 8.64579 7.21656C8.64131 7.21656 8.6386 7.2116 8.64103 7.20783C8.64448 7.20247 8.64795 7.19708 8.65146 7.19167C8.65146 6.62673 8.19349 6.16876 7.62855 6.16876H7.47866C6.80955 6.16876 6.26098 6.72639 6.2629 7.39549C6.26677 8.75025 6.26023 10.8691 6.25515 12.1921C6.2526 12.8559 6.78986 13.3937 7.45362 13.3937Z" fill="#D57E4F"/>
</svg>
